{"38345": {"command": ["ffmpeg", "-i", "rtmp://localhost:1937/stream/100", "-s", "1280x720", "-crf", "27", "-b:v", "1500k", "-c:v", "libx264", "-b:a", "128k", "-c:a", "aac", "-f", "flv", "rtmp://localhost:1935/hls/s_100_720p"], "input_file": "rtmp://localhost:1937/stream/100", "output_file": "rtmp://localhost:1935/hls/s_100_720p", "pid": 38345, "status": "Killed", "has_error": false, "output_lines": ["ffmpeg version 6.0 Copyright (c) 2000-2023 the FFmpeg developers", "built with gcc 12.2.1 (Alpine 12.2.1_git20220924-r4) 20220924", "configuration: --pkg-config-flags=--static --extra-cflags=-fopenmp --extra-ldflags='-fopenmp -Wl,-z,stack-size=2097152' --toolchain=hardened --disable-debug --disable-shared --disable-ffplay --enable-static --enable-gpl --enable-version3 --enable-nonfree --enable-fontconfig --enable-gray --enable-iconv --enable-libaom --enable-libaribb24 --enable-libass --enable-libbluray --enable-libdav1d --enable-libdavs2 --enable-libfdk-aac --enable-libfreetype --enable-libfribidi --enable-libgme --enable-libgsm --enable-libkvazaar --enable-libmodplug --enable-libmp3lame --enable-libmysofa --enable-libopencore-amrnb --enable-libopencore-amrwb --enable-libopenjpeg --enable-libopus --enable-librabbitmq --enable-librav1e --enable-librtmp --enable-librubberband --enable-libshine --enable-libsnappy --enable-libsoxr --enable-libspeex --enable-libsrt --enable-libssh --enable-libsvtav1 --enable-libtheora --enable-libtwolame --enable-libuavs3d --enable-libvidstab --enable-libvmaf --enable-libvo-amrwbenc --enable-libvorbis --enable-libvpx --enable-libwebp --enable-libx264 --enable-libx265 --enable-libxavs2 --enable-libxml2 --enable-libxvid --enable-libzimg --enable-openssl", "libavutil      58.  2.100 / 58.  2.100", "libavcodec     60.  3.100 / 60.  3.100", "libavformat    60.  3.100 / 60.  3.100", "libavdevice    60.  1.100 / 60.  1.100", "libavfilter     9.  3.100 /  9.  3.100", "libswscale      7.  1.100 /  7.  1.100", "libswresample   4. 10.100 /  4. 10.100", "libpostproc    57.  1.100 / 57.  1.100", "Metadata:", "Server                NGINX RTMP (github.com/arut/nginx-rtmp-module)", "width                 1280.00", "height                720.00", "displayWidth          1280.00", "displayHeight         720.00", "duration              0.00", "framerate             59.00", "fps                   59.00", "videodatarate         2500.00", "videocodecid          7.00", "audiodatarate         160.00", "audiocodecid          10.00", "Input #0, live_flv, from 'rtmp://localhost:1937/stream/100':", "Metadata:", "Server          : NGINX RTMP (github.com/arut/nginx-rtmp-module)", "displayWidth    : 1280", "displayHeight   : 720", "fps             : 59", "profile         :", "level           :", "Duration: 00:00:00.00, start: 2063.218000, bitrate: N/A", "Stream #0:0: Audio: aac (LC), 44100 Hz, stereo, fltp, 163 kb/s", "Stream #0:1: Video: h264 (High), yuv420p(tv, bt709, progressive), 1280x720 [SAR 1:1 DAR 16:9], 2560 kb/s, 59 fps, 59.94 tbr, 1k tbn", "Stream mapping:", "Stream #0:1 -> #0:0 (h264 (native) -> h264 (libx264))", "Stream #0:0 -> #0:1 (aac (native) -> aac (native))", "Press [q] to stop, [?] for help", "[libx264 @ 0x7f1b5a8943c0] using SAR=1/1", "[libx264 @ 0x7f1b5a8943c0] using cpu capabilities: MMX2 SSE2Fast SSSE3 SSE4.2 AVX FMA3 BMI2 AVX2", "[libx264 @ 0x7f1b5a8943c0] profile High, level 3.2, 4:2:0, 8-bit", "[libx264 @ 0x7f1b5a8943c0] 264 - core 164 r3095 baee400 - H.264/MPEG-4 AVC codec - Copyleft 2003-2022 - http://www.videolan.org/x264.html - options: cabac=1 ref=3 deblock=1:0:0 analyse=0x3:0x113 me=hex subme=7 psy=1 psy_rd=1.00:0.00 mixed_ref=1 me_range=16 chroma_me=1 trellis=1 8x8dct=1 cqm=0 deadzone=21,11 fast_pskip=1 chroma_qp_offset=-2 threads=22 lookahead_threads=3 sliced_threads=0 nr=0 decimate=1 interlaced=0 bluray_compat=0 constrained_intra=0 bframes=3 b_pyramid=2 b_adapt=1 b_bias=0 direct=1 weightb=1 open_gop=0 weightp=2 keyint=250 keyint_min=25 scenecut=40 intra_refresh=0 rc_lookahead=40 rc=crf mbtree=1 crf=27.0 qcomp=0.60 qpmin=0 qpmax=69 qpstep=4 ip_ratio=1.40 aq=1:1.00", "Output #0, flv, to 'rtmp://localhost:1935/hls/s_100_720p':", "Metadata:", "Server          : NGINX RTMP (github.com/arut/nginx-rtmp-module)", "displayWidth    : 1280", "displayHeight   : 720", "fps             : 59", "profile         :", "level           :", "encoder         : Lavf60.3.100", "Stream #0:0: Video: h264 ([7][0][0][0] / 0x0007), yuv420p(tv, bt709, progressive), 1280x720 [SAR 1:1 DAR 16:9], q=2-31, 1500 kb/s, 59.94 fps, 1k tbn", "Metadata:", "encoder         : Lavc60.3.100 libx264", "Side data:", "cpb: bitrate max/min/avg: 0/0/1500000 buffer size: 0 vbv_delay: N/A", "Stream #0:1: Audio: aac (LC) ([10][0][0][0] / 0x000A), 44100 Hz, stereo, fltp, 128 kb/s", "Metadata:", "encoder         : Lavc60.3.100 aac", "frame=    0 fps=0.0 q=0.0 size=       1kB time=00:00:01.55 bitrate=   2.8kbits/s speed=9.04x", "frame=    0 fps=0.0 q=0.0 size=       1kB time=00:00:02.32 bitrate=   1.9kbits/s speed=3.24x", "frame=   26 fps= 21 q=35.0 size=     166kB time=00:00:03.08 bitrate= 439.5kbits/s speed= 2.5x", "frame=   66 fps= 38 q=35.0 size=     389kB time=00:00:03.76 bitrate= 847.3kbits/s speed=2.15x", "frame=   95 fps= 42 q=35.0 size=     663kB time=00:00:04.25 bitrate=1278.1kbits/s speed=1.89x", "frame=  127 fps= 46 q=35.0 size=     990kB time=00:00:04.78 bitrate=1694.5kbits/s speed=1.73x", "frame=  158 fps= 48 q=35.0 size=    1159kB time=00:00:05.29 bitrate=1792.4kbits/s speed=1.62x", "frame=  187 fps= 50 q=35.0 size=    1297kB time=00:00:05.78 bitrate=1838.0kbits/s speed=1.54x", "frame=  218 fps= 51 q=35.0 size=    1412kB time=00:00:06.29 bitrate=1838.2kbits/s speed=1.47x", "frame=  249 fps= 52 q=35.0 size=    1525kB time=00:00:06.80 bitrate=1836.6kbits/s speed=1.42x", "frame=  279 fps= 53 q=35.0 size=    1639kB time=00:00:07.29 bitrate=1841.9kbits/s speed=1.38x", "frame=  308 fps= 53 q=35.0 size=    1746kB time=00:00:07.80 bitrate=1833.4kbits/s speed=1.35x", "frame=  339 fps= 54 q=35.0 size=    1849kB time=00:00:08.31 bitrate=1821.6kbits/s speed=1.32x", "frame=  361 fps= 53 q=33.0 size=    1926kB time=00:00:08.68 bitrate=1816.4kbits/s speed=1.28x", "frame=  400 fps= 55 q=35.0 size=    2132kB time=00:00:09.33 bitrate=1870.9kbits/s speed=1.28x", "frame=  431 fps= 55 q=35.0 size=    2255kB time=00:00:09.84 bitrate=1876.3kbits/s speed=1.26x", "frame=  462 fps= 55 q=35.0 size=    2365kB time=00:00:10.35 bitrate=1871.0kbits/s speed=1.24x", "frame=  492 fps= 55 q=35.0 size=    2479kB time=00:00:10.86 bitrate=1868.4kbits/s speed=1.22x", "frame=  524 fps= 56 q=35.0 size=    2598kB time=00:00:11.40 bitrate=1866.9kbits/s speed=1.21x", "frame=  555 fps= 56 q=35.0 size=    2701kB time=00:00:11.91 bitrate=1857.4kbits/s speed= 1.2x", "frame=  585 fps= 56 q=35.0 size=    2810kB time=00:00:12.42 bitrate=1853.2kbits/s speed=1.19x", "frame=  616 fps= 56 q=35.0 size=    2931kB time=00:00:12.93 bitrate=1856.6kbits/s speed=1.18x", "frame=  647 fps= 57 q=35.0 size=    3111kB time=00:00:13.44 bitrate=1895.4kbits/s speed=1.18x", "frame=  677 fps= 57 q=35.0 size=    3223kB time=00:00:13.95 bitrate=1891.7kbits/s speed=1.17x", "frame=  708 fps= 57 q=35.0 size=    3330kB time=00:00:14.46 bitrate=1885.9kbits/s speed=1.16x", "frame=  738 fps= 57 q=35.0 size=    3463kB time=00:00:14.97 bitrate=1894.3kbits/s speed=1.16x", "frame=  769 fps= 57 q=35.0 size=    3599kB time=00:00:15.48 bitrate=1903.8kbits/s speed=1.15x", "frame=  800 fps= 57 q=35.0 size=    3740kB time=00:00:15.99 bitrate=1915.0kbits/s speed=1.15x", "frame=  829 fps= 57 q=35.0 size=    3881kB time=00:00:16.48 bitrate=1928.2kbits/s speed=1.14x", "frame=  860 fps= 57 q=35.0 size=    4030kB time=00:00:16.99 bitrate=1942.3kbits/s speed=1.14x", "frame=  889 fps= 57 q=33.0 size=    4177kB time=00:00:17.48 bitrate=1957.1kbits/s speed=1.13x", "frame=  919 fps= 57 q=35.0 size=    4321kB time=00:00:17.99 bitrate=1966.8kbits/s speed=1.13x", "frame=  950 fps= 58 q=35.0 size=    4443kB time=00:00:18.50 bitrate=1966.8kbits/s speed=1.12x", "frame=  979 fps= 58 q=35.0 size=    4544kB time=00:00:18.99 bitrate=1960.0kbits/s speed=1.12x", "frame= 1011 fps= 58 q=35.0 size=    4674kB time=00:00:19.52 bitrate=1960.8kbits/s speed=1.11x", "frame= 1043 fps= 58 q=35.0 size=    4796kB time=00:00:20.06 bitrate=1958.3kbits/s speed=1.11x", "frame= 1074 fps= 58 q=35.0 size=    4929kB time=00:00:20.57 bitrate=1962.7kbits/s speed=1.11x", "frame= 1105 fps= 58 q=35.0 size=    5039kB time=00:00:21.08 bitrate=1958.0kbits/s speed= 1.1x", "frame= 1137 fps= 58 q=35.0 size=    5148kB time=00:00:21.61 bitrate=1950.7kbits/s speed= 1.1x", "frame= 1166 fps= 58 q=35.0 size=    5324kB time=00:00:22.10 bitrate=1973.0kbits/s speed= 1.1x", "frame= 1196 fps= 58 q=35.0 size=    5446kB time=00:00:22.61 bitrate=1972.7kbits/s speed= 1.1x", "frame= 1227 fps= 58 q=35.0 size=    5569kB time=00:00:23.12 bitrate=1972.6kbits/s speed= 1.1x", "frame= 1258 fps= 58 q=35.0 size=    5694kB time=00:00:23.63 bitrate=1973.4kbits/s speed=1.09x", "frame= 1288 fps= 58 q=35.0 size=    5800kB time=00:00:24.14 bitrate=1967.5kbits/s speed=1.09x", "frame= 1319 fps= 58 q=35.0 size=    5893kB time=00:00:24.66 bitrate=1957.8kbits/s speed=1.09x", "frame= 1349 fps= 58 q=35.0 size=    6022kB time=00:00:25.17 bitrate=1960.0kbits/s speed=1.09x", "frame= 1380 fps= 58 q=35.0 size=    6139kB time=00:00:25.68 bitrate=1958.2kbits/s speed=1.09x", "frame= 1411 fps= 58 q=35.0 size=    6239kB time=00:00:26.19 bitrate=1951.2kbits/s speed=1.08x", "frame= 1441 fps= 58 q=35.0 size=    6359kB time=00:00:26.70 bitrate=1950.7kbits/s speed=1.08x", "frame= 1472 fps= 58 q=35.0 size=    6458kB time=00:00:27.21 bitrate=1943.9kbits/s speed=1.08x", "frame= 1503 fps= 58 q=35.0 size=    6551kB time=00:00:27.72 bitrate=1935.6kbits/s speed=1.08x", "frame= 1533 fps= 58 q=35.0 size=    6643kB time=00:00:28.23 bitrate=1927.3kbits/s speed=1.08x", "frame= 1564 fps= 58 q=35.0 size=    6727kB time=00:00:28.74 bitrate=1917.0kbits/s speed=1.08x", "frame= 1594 fps= 59 q=35.0 size=    6811kB time=00:00:29.25 bitrate=1907.0kbits/s speed=1.07x", "frame= 1625 fps= 59 q=35.0 size=    6900kB time=00:00:29.76 bitrate=1898.7kbits/s speed=1.07x", "frame= 1656 fps= 59 q=35.0 size=    6986kB time=00:00:30.27 bitrate=1890.0kbits/s speed=1.07x", "frame= 1686 fps= 59 q=35.0 size=    7108kB time=00:00:30.79 bitrate=1891.2kbits/s speed=1.07x", "frame= 1717 fps= 59 q=35.0 size=    7211kB time=00:00:31.30 bitrate=1887.1kbits/s speed=1.07x", "frame= 1748 fps= 59 q=35.0 size=    7320kB time=00:00:31.81 bitrate=1884.9kbits/s speed=1.07x", "frame= 1778 fps= 59 q=35.0 size=    7429kB time=00:00:32.32 bitrate=1882.8kbits/s speed=1.07x", "frame= 1810 fps= 59 q=35.0 size=    7547kB time=00:00:32.85 bitrate=1881.6kbits/s speed=1.07x", "frame= 1841 fps= 59 q=35.0 size=    7657kB time=00:00:33.36 bitrate=1879.8kbits/s speed=1.06x", "frame= 1871 fps= 59 q=35.0 size=    7751kB time=00:00:33.87 bitrate=1874.3kbits/s speed=1.06x", "frame= 1902 fps= 59 q=35.0 size=    7852kB time=00:00:34.38 bitrate=1870.5kbits/s speed=1.06x", "frame= 1933 fps= 59 q=35.0 size=    7981kB time=00:00:34.90 bitrate=1873.4kbits/s speed=1.06x", "frame= 1963 fps= 59 q=35.0 size=    8063kB time=00:00:35.41 bitrate=1865.2kbits/s speed=1.06x", "frame= 1994 fps= 59 q=35.0 size=    8154kB time=00:00:35.92 bitrate=1859.4kbits/s speed=1.06x", "frame= 2025 fps= 59 q=35.0 size=    8304kB time=00:00:36.43 bitrate=1867.2kbits/s speed=1.06x", "frame= 2053 fps= 59 q=35.0 size=    8462kB time=00:00:36.89 bitrate=1878.8kbits/s speed=1.06x", "frame= 2081 fps= 59 q=35.0 size=    8621kB time=00:00:37.36 bitrate=1890.4kbits/s speed=1.05x", "Larger timestamp than 24-bit: 0xffffff0a", "[flv @ 0x7f1b59eded40] Failed to update header with correct duration.", "[flv @ 0x7f1b59eded40] Failed to update header with correct filesize.", "frame= 2160 fps= 60 q=-1.0 Lsize=    8987kB time=00:00:37.61 bitrate=1957.1kbits/s speed=1.04x", "video:8327kB audio:591kB subtitle:0kB other streams:0kB global headers:0kB muxing overhead: 0.781220%", "[libx264 @ 0x7f1b5a8943c0] frame I:12    Avg QP:25.99  size: 44363", "[libx264 @ 0x7f1b5a8943c0] frame P:620   Avg QP:29.31  size:  8623", "[libx264 @ 0x7f1b5a8943c0] frame B:1528  Avg QP:35.41  size:  1732", "[libx264 @ 0x7f1b5a8943c0] consecutive B-frames:  1.2%  3.0% 31.4% 64.4%", "[libx264 @ 0x7f1b5a8943c0] mb I  I16..4: 13.6% 69.5% 16.9%", "[libx264 @ 0x7f1b5a8943c0] mb P  I16..4:  1.0%  2.4%  0.4%  P16..4: 33.0%  7.2%  4.5%  0.0%  0.0%    skip:51.3%", "[libx264 @ 0x7f1b5a8943c0] mb B  I16..4:  0.1%  0.1%  0.0%  B16..8: 35.9%  1.4%  0.2%  direct: 0.3%  skip:62.0%  L0:40.8% L1:57.4% BI: 1.8%", "[libx264 @ 0x7f1b5a8943c0] 8x8 transform intra:64.8% inter:74.0%", "[libx264 @ 0x7f1b5a8943c0] coded y,uvDC,uvAC intra: 46.0% 56.8% 23.7% inter: 4.0% 4.0% 0.5%", "[libx264 @ 0x7f1b5a8943c0] i16 v,h,dc,p: 15% 55% 10% 19%", "[libx264 @ 0x7f1b5a8943c0] i8 v,h,dc,ddl,ddr,vr,hd,vl,hu: 18% 24% 23%  5%  6%  6%  7%  6%  6%", "[libx264 @ 0x7f1b5a8943c0] i4 v,h,dc,ddl,ddr,vr,hd,vl,hu: 18% 39% 15%  4%  5%  5%  5%  4%  5%", "[libx264 @ 0x7f1b5a8943c0] i8c dc,h,v,p: 51% 25% 17%  7%", "[libx264 @ 0x7f1b5a8943c0] Weighted P-Frames: Y:0.3% UV:0.0%", "[libx264 @ 0x7f1b5a8943c0] ref P L0: 67.6% 13.5% 13.8%  5.1%  0.0%", "[libx264 @ 0x7f1b5a8943c0] ref B L0: 91.9%  6.5%  1.6%", "[libx264 @ 0x7f1b5a8943c0] ref B L1: 98.1%  1.9%", "[libx264 @ 0x7f1b5a8943c0] kb/s:1892.75", "[aac @ 0x7f1b5a894fc0] Qavg: 491.174", "Exiting normally, received signal 15."]}, "38347": {"command": ["ffmpeg", "-i", "rtmp://localhost:1937/stream/100", "-s", "640x360", "-crf", "27", "-b:v", "1000k", "-c:v", "libx264", "-b:a", "128k", "-c:a", "aac", "-f", "flv", "rtmp://localhost:1935/hls/s_100_360p"], "input_file": "rtmp://localhost:1937/stream/100", "output_file": "rtmp://localhost:1935/hls/s_100_360p", "pid": 38347, "status": "Killed", "has_error": false, "output_lines": ["ffmpeg version 6.0 Copyright (c) 2000-2023 the FFmpeg developers", "built with gcc 12.2.1 (Alpine 12.2.1_git20220924-r4) 20220924", "configuration: --pkg-config-flags=--static --extra-cflags=-fopenmp --extra-ldflags='-fopenmp -Wl,-z,stack-size=2097152' --toolchain=hardened --disable-debug --disable-shared --disable-ffplay --enable-static --enable-gpl --enable-version3 --enable-nonfree --enable-fontconfig --enable-gray --enable-iconv --enable-libaom --enable-libaribb24 --enable-libass --enable-libbluray --enable-libdav1d --enable-libdavs2 --enable-libfdk-aac --enable-libfreetype --enable-libfribidi --enable-libgme --enable-libgsm --enable-libkvazaar --enable-libmodplug --enable-libmp3lame --enable-libmysofa --enable-libopencore-amrnb --enable-libopencore-amrwb --enable-libopenjpeg --enable-libopus --enable-librabbitmq --enable-librav1e --enable-librtmp --enable-librubberband --enable-libshine --enable-libsnappy --enable-libsoxr --enable-libspeex --enable-libsrt --enable-libssh --enable-libsvtav1 --enable-libtheora --enable-libtwolame --enable-libuavs3d --enable-libvidstab --enable-libvmaf --enable-libvo-amrwbenc --enable-libvorbis --enable-libvpx --enable-libwebp --enable-libx264 --enable-libx265 --enable-libxavs2 --enable-libxml2 --enable-libxvid --enable-libzimg --enable-openssl", "libavutil      58.  2.100 / 58.  2.100", "libavcodec     60.  3.100 / 60.  3.100", "libavformat    60.  3.100 / 60.  3.100", "libavdevice    60.  1.100 / 60.  1.100", "libavfilter     9.  3.100 /  9.  3.100", "libswscale      7.  1.100 /  7.  1.100", "libswresample   4. 10.100 /  4. 10.100", "libpostproc    57.  1.100 / 57.  1.100", "Metadata:", "Server                NGINX RTMP (github.com/arut/nginx-rtmp-module)", "width                 1280.00", "height                720.00", "displayWidth          1280.00", "displayHeight         720.00", "duration              0.00", "framerate             59.00", "fps                   59.00", "videodatarate         2500.00", "videocodecid          7.00", "audiodatarate         160.00", "audiocodecid          10.00", "Input #0, live_flv, from 'rtmp://localhost:1937/stream/100':", "Metadata:", "Server          : NGINX RTMP (github.com/arut/nginx-rtmp-module)", "displayWidth    : 1280", "displayHeight   : 720", "fps             : 59", "profile         :", "level           :", "Duration: 00:00:00.00, start: 2063.218000, bitrate: N/A", "Stream #0:0: Audio: aac (LC), 44100 Hz, stereo, fltp, 163 kb/s", "Stream #0:1: Video: h264 (High), yuv420p(tv, bt709, progressive), 1280x720 [SAR 1:1 DAR 16:9], 2560 kb/s, 59 fps, 59.94 tbr, 1k tbn", "Stream mapping:", "Stream #0:1 -> #0:0 (h264 (native) -> h264 (libx264))", "Stream #0:0 -> #0:1 (aac (native) -> aac (native))", "Press [q] to stop, [?] for help", "[libx264 @ 0x7f80a26803c0] using SAR=1/1", "[libx264 @ 0x7f80a26803c0] using cpu capabilities: MMX2 SSE2Fast SSSE3 SSE4.2 AVX FMA3 BMI2 AVX2", "[libx264 @ 0x7f80a26803c0] profile High, level 3.1, 4:2:0, 8-bit", "[libx264 @ 0x7f80a26803c0] 264 - core 164 r3095 baee400 - H.264/MPEG-4 AVC codec - Copyleft 2003-2022 - http://www.videolan.org/x264.html - options: cabac=1 ref=3 deblock=1:0:0 analyse=0x3:0x113 me=hex subme=7 psy=1 psy_rd=1.00:0.00 mixed_ref=1 me_range=16 chroma_me=1 trellis=1 8x8dct=1 cqm=0 deadzone=21,11 fast_pskip=1 chroma_qp_offset=-2 threads=11 lookahead_threads=1 sliced_threads=0 nr=0 decimate=1 interlaced=0 bluray_compat=0 constrained_intra=0 bframes=3 b_pyramid=2 b_adapt=1 b_bias=0 direct=1 weightb=1 open_gop=0 weightp=2 keyint=250 keyint_min=25 scenecut=40 intra_refresh=0 rc_lookahead=40 rc=crf mbtree=1 crf=27.0 qcomp=0.60 qpmin=0 qpmax=69 qpstep=4 ip_ratio=1.40 aq=1:1.00", "Output #0, flv, to 'rtmp://localhost:1935/hls/s_100_360p':", "Metadata:", "Server          : NGINX RTMP (github.com/arut/nginx-rtmp-module)", "displayWidth    : 1280", "displayHeight   : 720", "fps             : 59", "profile         :", "level           :", "encoder         : Lavf60.3.100", "Stream #0:0: Video: h264 ([7][0][0][0] / 0x0007), yuv420p(tv, bt709, progressive), 640x360 [SAR 1:1 DAR 16:9], q=2-31, 1000 kb/s, 59.94 fps, 1k tbn", "Metadata:", "encoder         : Lavc60.3.100 libx264", "Side data:", "cpb: bitrate max/min/avg: 0/0/1000000 buffer size: 0 vbv_delay: N/A", "Stream #0:1: Audio: aac (LC) ([10][0][0][0] / 0x000A), 44100 Hz, stereo, fltp, 128 kb/s", "Metadata:", "encoder         : Lavc60.3.100 aac", "frame=    0 fps=0.0 q=0.0 size=       1kB time=00:00:01.55 bitrate=   2.8kbits/s speed=10.3x", "frame=    8 fps=0.0 q=35.0 size=      41kB time=00:00:02.60 bitrate= 128.8kbits/s speed=3.97x", "frame=   42 fps= 36 q=35.0 size=      90kB time=00:00:03.18 bitrate= 232.8kbits/s speed= 2.7x", "frame=   74 fps= 43 q=35.0 size=     148kB time=00:00:03.71 bitrate= 327.3kbits/s speed=2.18x", "frame=  105 fps= 47 q=35.0 size=     202kB time=00:00:04.22 bitrate= 392.4kbits/s speed= 1.9x", "frame=  136 fps= 50 q=35.0 size=     267kB time=00:00:04.73 bitrate= 462.0kbits/s speed=1.74x", "frame=  166 fps= 51 q=35.0 size=     314kB time=00:00:05.24 bitrate= 489.8kbits/s speed=1.63x", "frame=  197 fps= 53 q=35.0 size=     358kB time=00:00:05.75 bitrate= 509.4kbits/s speed=1.54x", "frame=  226 fps= 53 q=35.0 size=     399kB time=00:00:06.24 bitrate= 523.4kbits/s speed=1.48x", "frame=  257 fps= 54 q=35.0 size=     442kB time=00:00:06.75 bitrate= 535.9kbits/s speed=1.43x", "frame=  285 fps= 54 q=35.0 size=     477kB time=00:00:07.22 bitrate= 541.2kbits/s speed=1.38x", "frame=  317 fps= 55 q=35.0 size=     522kB time=00:00:07.75 bitrate= 550.9kbits/s speed=1.35x", "frame=  347 fps= 55 q=35.0 size=     562kB time=00:00:08.26 bitrate= 556.9kbits/s speed=1.32x", "frame=  378 fps= 56 q=35.0 size=     600kB time=00:00:08.77 bitrate= 560.1kbits/s speed= 1.3x", "frame=  408 fps= 56 q=35.0 size=     661kB time=00:00:09.28 bitrate= 582.6kbits/s speed=1.28x", "frame=  439 fps= 56 q=35.0 size=     702kB time=00:00:09.79 bitrate= 586.8kbits/s speed=1.26x", "frame=  469 fps= 57 q=35.0 size=     743kB time=00:00:10.31 bitrate= 590.5kbits/s speed=1.24x", "frame=  500 fps= 57 q=35.0 size=     789kB time=00:00:10.82 bitrate= 597.0kbits/s speed=1.23x", "frame=  531 fps= 57 q=35.0 size=     828kB time=00:00:11.33 bitrate= 598.3kbits/s speed=1.22x", "frame=  561 fps= 57 q=35.0 size=     862kB time=00:00:11.81 bitrate= 597.6kbits/s speed= 1.2x", "frame=  592 fps= 57 q=35.0 size=     909kB time=00:00:12.35 bitrate= 602.5kbits/s speed= 1.2x", "frame=  621 fps= 57 q=33.0 size=     954kB time=00:00:12.84 bitrate= 608.4kbits/s speed=1.19x", "frame=  652 fps= 58 q=35.0 size=    1015kB time=00:00:13.35 bitrate= 622.5kbits/s speed=1.18x", "frame=  683 fps= 58 q=35.0 size=    1058kB time=00:00:13.86 bitrate= 625.1kbits/s speed=1.17x", "frame=  713 fps= 58 q=35.0 size=    1095kB time=00:00:14.37 bitrate= 624.3kbits/s speed=1.16x", "frame=  744 fps= 58 q=35.0 size=    1153kB time=00:00:14.88 bitrate= 634.6kbits/s speed=1.16x", "frame=  775 fps= 58 q=35.0 size=    1208kB time=00:00:15.39 bitrate= 642.9kbits/s speed=1.15x", "frame=  805 fps= 58 q=35.0 size=    1267kB time=00:00:15.90 bitrate= 652.6kbits/s speed=1.14x", "frame=  836 fps= 58 q=35.0 size=    1321kB time=00:00:16.41 bitrate= 659.0kbits/s speed=1.14x", "frame=  866 fps= 58 q=35.0 size=    1381kB time=00:00:16.92 bitrate= 668.3kbits/s speed=1.13x", "frame=  897 fps= 58 q=35.0 size=    1431kB time=00:00:17.43 bitrate= 672.4kbits/s speed=1.13x", "frame=  928 fps= 58 q=35.0 size=    1485kB time=00:00:17.94 bitrate= 677.6kbits/s speed=1.13x", "frame=  958 fps= 58 q=35.0 size=    1525kB time=00:00:18.46 bitrate= 676.9kbits/s speed=1.12x", "frame=  989 fps= 58 q=35.0 size=    1570kB time=00:00:18.97 bitrate= 677.8kbits/s speed=1.12x", "frame= 1018 fps= 58 q=35.0 size=    1611kB time=00:00:19.45 bitrate= 678.1kbits/s speed=1.11x", "frame= 1049 fps= 58 q=35.0 size=    1656kB time=00:00:19.97 bitrate= 679.4kbits/s speed=1.11x", "frame= 1079 fps= 58 q=35.0 size=    1699kB time=00:00:20.48 bitrate= 679.8kbits/s speed=1.11x", "frame= 1109 fps= 58 q=35.0 size=    1743kB time=00:00:20.96 bitrate= 681.1kbits/s speed=1.11x", "frame= 1141 fps= 59 q=35.0 size=    1785kB time=00:00:21.50 bitrate= 680.2kbits/s speed= 1.1x", "frame= 1169 fps= 58 q=35.0 size=    1845kB time=00:00:21.96 bitrate= 688.0kbits/s speed= 1.1x", "frame= 1201 fps= 59 q=35.0 size=    1893kB time=00:00:22.50 bitrate= 689.2kbits/s speed= 1.1x", "frame= 1232 fps= 59 q=35.0 size=    1934kB time=00:00:23.03 bitrate= 687.7kbits/s speed= 1.1x", "frame= 1262 fps= 59 q=35.0 size=    1980kB time=00:00:23.52 bitrate= 689.5kbits/s speed=1.09x", "frame= 1294 fps= 59 q=35.0 size=    2017kB time=00:00:24.05 bitrate= 686.9kbits/s speed=1.09x", "frame= 1324 fps= 59 q=35.0 size=    2049kB time=00:00:24.56 bitrate= 683.2kbits/s speed=1.09x", "frame= 1355 fps= 59 q=35.0 size=    2105kB time=00:00:25.07 bitrate= 687.7kbits/s speed=1.09x", "frame= 1386 fps= 59 q=35.0 size=    2146kB time=00:00:25.58 bitrate= 686.9kbits/s speed=1.09x", "frame= 1415 fps= 59 q=35.0 size=    2181kB time=00:00:26.07 bitrate= 685.2kbits/s speed=1.08x", "frame= 1446 fps= 59 q=35.0 size=    2224kB time=00:00:26.58 bitrate= 685.3kbits/s speed=1.08x", "frame= 1476 fps= 59 q=35.0 size=    2260kB time=00:00:27.09 bitrate= 683.3kbits/s speed=1.08x", "frame= 1507 fps= 59 q=35.0 size=    2293kB time=00:00:27.60 bitrate= 680.2kbits/s speed=1.08x", "frame= 1536 fps= 59 q=35.0 size=    2326kB time=00:00:28.09 bitrate= 678.3kbits/s speed=1.08x", "frame= 1566 fps= 59 q=35.0 size=    2357kB time=00:00:28.60 bitrate= 675.0kbits/s speed=1.08x", "frame= 1597 fps= 59 q=35.0 size=    2400kB time=00:00:29.11 bitrate= 675.2kbits/s speed=1.07x", "frame= 1627 fps= 59 q=35.0 size=    2433kB time=00:00:29.60 bitrate= 673.3kbits/s speed=1.07x", "frame= 1657 fps= 59 q=35.0 size=    2470kB time=00:00:30.11 bitrate= 671.8kbits/s speed=1.07x", "frame= 1689 fps= 59 q=35.0 size=    2507kB time=00:00:30.65 bitrate= 670.0kbits/s speed=1.07x", "frame= 1720 fps= 59 q=35.0 size=    2549kB time=00:00:31.16 bitrate= 670.1kbits/s speed=1.07x", "frame= 1750 fps= 59 q=35.0 size=    2591kB time=00:00:31.67 bitrate= 670.2kbits/s speed=1.07x", "frame= 1781 fps= 59 q=35.0 size=    2633kB time=00:00:32.18 bitrate= 670.3kbits/s speed=1.07x", "frame= 1811 fps= 59 q=35.0 size=    2673kB time=00:00:32.69 bitrate= 669.7kbits/s speed=1.07x", "frame= 1842 fps= 59 q=35.0 size=    2725kB time=00:00:33.20 bitrate= 672.2kbits/s speed=1.06x", "frame= 1873 fps= 59 q=35.0 size=    2761kB time=00:00:33.71 bitrate= 670.8kbits/s speed=1.06x", "frame= 1903 fps= 59 q=35.0 size=    2796kB time=00:00:34.22 bitrate= 669.1kbits/s speed=1.06x", "frame= 1934 fps= 59 q=35.0 size=    2832kB time=00:00:34.73 bitrate= 667.7kbits/s speed=1.06x", "frame= 1965 fps= 59 q=35.0 size=    2862kB time=00:00:35.24 bitrate= 665.1kbits/s speed=1.06x", "frame= 1994 fps= 59 q=35.0 size=    2892kB time=00:00:35.73 bitrate= 663.1kbits/s speed=1.06x", "frame= 2024 fps= 59 q=35.0 size=    2968kB time=00:00:36.24 bitrate= 670.7kbits/s speed=1.06x", "frame= 2055 fps= 59 q=35.0 size=    3050kB time=00:00:36.75 bitrate= 679.8kbits/s speed=1.06x", "frame= 2086 fps= 59 q=35.0 size=    3119kB time=00:00:37.26 bitrate= 685.7kbits/s speed=1.06x", "frame= 2115 fps= 59 q=35.0 size=    3188kB time=00:00:37.75 bitrate= 691.8kbits/s speed=1.06x", "frame= 2145 fps= 59 q=35.0 size=    3245kB time=00:00:38.26 bitrate= 694.8kbits/s speed=1.06x", "frame= 2173 fps= 59 q=35.0 size=    3292kB time=00:00:38.73 bitrate= 696.3kbits/s speed=1.05x", "frame= 2207 fps= 59 q=35.0 size=    3352kB time=00:00:39.28 bitrate= 698.9kbits/s speed=1.05x", "frame= 2237 fps= 59 q=35.0 size=    3402kB time=00:00:39.79 bitrate= 700.2kbits/s speed=1.05x", "frame= 2268 fps= 59 q=35.0 size=    3445kB time=00:00:40.31 bitrate= 700.1kbits/s speed=1.05x", "Larger timestamp than 24-bit: 0xfffffefa", "[flv @ 0x7f80a1ccad40] Failed to update header with correct duration.", "[flv @ 0x7f80a1ccad40] Failed to update header with correct filesize.", "frame= 2347 fps= 60 q=-1.0 Lsize=    3581kB time=00:00:40.75 bitrate= 719.8kbits/s speed=1.05x", "video:2866kB audio:640kB subtitle:0kB other streams:0kB global headers:0kB muxing overhead: 2.155612%", "[libx264 @ 0x7f80a26803c0] frame I:13    Avg QP:26.88  size: 17484", "[libx264 @ 0x7f80a26803c0] frame P:661   Avg QP:30.45  size:  2875", "[libx264 @ 0x7f80a26803c0] frame B:1673  Avg QP:36.96  size:   482", "[libx264 @ 0x7f80a26803c0] consecutive B-frames:  2.0%  6.2%  8.3% 83.5%", "[libx264 @ 0x7f80a26803c0] mb I  I16..4: 12.0% 60.2% 27.8%", "[libx264 @ 0x7f80a26803c0] mb P  I16..4:  0.7%  2.1%  0.5%  P16..4: 32.9%  9.9%  6.4%  0.0%  0.0%    skip:47.4%", "[libx264 @ 0x7f80a26803c0] mb B  I16..4:  0.0%  0.1%  0.0%  B16..8: 34.6%  2.0%  0.4%  direct: 0.4%  skip:62.5%  L0:42.2% L1:55.9% BI: 1.9%", "[libx264 @ 0x7f80a26803c0] 8x8 transform intra:61.6% inter:66.6%", "[libx264 @ 0x7f80a26803c0] coded y,uvDC,uvAC intra: 55.7% 64.0% 35.0% inter: 4.8% 4.4% 0.8%", "[libx264 @ 0x7f80a26803c0] i16 v,h,dc,p: 17% 58%  9% 16%", "[libx264 @ 0x7f80a26803c0] i8 v,h,dc,ddl,ddr,vr,hd,vl,hu: 18% 23% 23%  5%  6%  6%  6%  6%  7%", "[libx264 @ 0x7f80a26803c0] i4 v,h,dc,ddl,ddr,vr,hd,vl,hu: 22% 28% 17%  5%  6%  6%  5%  5%  6%", "[libx264 @ 0x7f80a26803c0] i8c dc,h,v,p: 55% 24% 16%  4%", "[libx264 @ 0x7f80a26803c0] Weighted P-Frames: Y:0.3% UV:0.0%", "[libx264 @ 0x7f80a26803c0] ref P L0: 66.3% 14.8% 12.6%  6.3%  0.0%", "[libx264 @ 0x7f80a26803c0] ref B L0: 92.4%  5.9%  1.7%", "[libx264 @ 0x7f80a26803c0] ref B L1: 96.5%  3.5%", "[libx264 @ 0x7f80a26803c0] kb/s:599.38", "[aac @ 0x7f80a2680fc0] Qavg: 505.066", "Exiting normally, received signal 15."]}}